<svg id="圖層_1" data-name="圖層 1" xmlns="http://www.w3.org/2000/svg" viewBox="0 0 500 500"><defs><style>.cls-1{fill:#112;}</style></defs><path class="cls-1" d="M117.22,70.8v2.44c96.86-3.86,85.49,48.73,59.29,40.21-9.74-9.35-32.08-24.37-59.29-35.13v26.39c-.2,1.63-8.73,7.52-23.15,7.52H88.79V81.56C76.61,91.51,61,99.64,43.3,106.34l21.33,8.12h75.94l12.59-13.4,25.38,19.09c-1,1.42-3.24,3.25-7.1,3.85v62.35c-.21,1.62-14.42,6.7-23.76,6.7H142.6V181.27H63v3.86c0,2.43-13,8.32-24.37,8.32H34.57V109.38a259.63,259.63,0,0,1-27,7.31l-1.42-2.43c24.57-10.56,45.49-27,58.69-43.46H13.45l-1.62-5.68h77V31.41c-23.35.4-47.52.4-69.45-.81l-.2-2.85C64.22,22.88,122.3,11.3,152.35,1.35l25,26.2c-2.44,2-7.52,2-14.62-.81-6.91.81-14.63,1.42-22.75,2L170,41.56c-1,2.44-3.86,4.06-8.33,3.45a176.18,176.18,0,0,1-32.9,19.09l-2.23-1.62c3.05-8.13,7.11-21.12,10.36-33.31-6.3.41-12.8.82-19.7,1.22V65.12h39.39l14-17.06s15.83,11.37,25.58,19.49c-.61,2.24-2.84,3.25-5.89,3.25ZM44.52,32.63C100,35.06,76.2,77.1,53.66,60.45c-.61-9.75-5.48-20.31-10.56-26.81ZM63,121v24.16H89.6V121Zm26.6,54.62V150.81H63v24.77ZM117,121v24.16H142.6V121Zm25.58,54.62V150.81H117v24.77Z"/><path class="cls-1" d="M299.17,23.69l26.4,23.56c-1.42,2.43-3.45,3.25-8.53,4.06C308.71,113,289,168.88,209.82,195.08l-1.62-2c31.67-18.69,51.17-45.9,63.15-77.57-5.28,1.82-11.78.81-18.07-4.67A64.36,64.36,0,0,0,246.17,82a141.13,141.13,0,0,1-34.52,34.93l-2.24-1.42c16.86-28.43,30.46-70.87,33.92-113.92l39.8,8.53c-.82,2.84-3.05,4.67-7.92,4.87a256.08,256.08,0,0,1-7.72,24.77h16.65ZM265.46,45.42a207.61,207.61,0,0,1-14,28.63c14.82,3.45,23.35,9.54,27.62,16a354.46,354.46,0,0,0,7.31-44.67Zm91.38,20.31c72.29,15,49.75,70.05,20.51,50.15-3.86-14.62-12.19-29.85-20.51-42.44V186.55c0,2.44-12.59,8.32-24,8.32H327V2.17l37.36,3.65c-.4,2.84-1.83,4.88-7.51,5.69Z"/><path class="cls-1" d="M486.2,3.25s6.05,4.65,9.65,7.9c-.18,1-1.14,1.4-2.37,1.4H467.85A47,47,0,0,1,450,24.4l-.79-.79A56.14,56.14,0,0,0,456,12.37a4.39,4.39,0,0,1-1.14.18H433.63a53.23,53.23,0,0,1-21.15,15.09l-.88-.79c5.62-6.14,11.06-16.14,13.87-26.85l15.79,5.09c-.35,1.14-1.58,1.84-3.6,1.84-.7,1.14-1.4,2.2-2.1,3.16h8l4.92-6.67s5,4.13,8.25,7.2A69.2,69.2,0,0,0,460.22,0L475.4,6.14c-.53,1.06-1.67,1.67-3.68,1.49-.62.88-1.23,1.67-1.85,2.46h11Zm-.71,45.1c0,.27-1,.79-2.45,1.32l9.21,6.85a5.27,5.27,0,0,1-3.51,1.84V72c0,6.93-1.32,10.71-11.76,11.59,0-3.25-.09-5.71-.61-7.2a4.26,4.26,0,0,0-3.51-3.16V72.05s2.28.18,3.42.18c.88,0,1.14-.44,1.14-1.32V68.19h-5V78.37c-.09.44-3.16,2-8.52,2h-1.84V68.19h-4.74V78.81c0,.35-3.16,2-8.42,2h-1.84V68.19H442.4V79.86c0,1-4.74,3.42-9.21,3.42h-1.58V57.57c-2.28,9.48-7.2,19.57-17.9,26.59l-.79-.88c7.9-14.21,8.51-31.33,8.51-44.14V24.66l12.72,5A329.27,329.27,0,0,0,472,21.5a12,12,0,0,0-3-7.63l.71-.44c13.34-.62,13.51,5.88,9.74,8.51l7.46,7.81c-1.06.79-3.07.79-5.8-.35a425.92,425.92,0,0,1-47.65,2.46v4.91h39.14l5.18-5.53,10.88,8a5.29,5.29,0,0,1-3.16,1.67Zm-6.05,2.37a14.68,14.68,0,0,1-3.78.53h-2.19V48.62H433.1l-.17,1.49,10.18,4h33.43Zm-46-11.49v.52c0,1.94,0,4.13-.17,6.41h40.19V39.23ZM435.38,14c20.8.79,10.71,16.06,2.37,9.48a16.4,16.4,0,0,0-3.07-9Zm11.68,51.69V56.52H442.4v9.21Zm15,0V56.52h-4.74v9.21Zm15.36,0V56.52h-5v9.21Z"/></svg>