<svg id="圖層_1" data-name="圖層 1" xmlns="http://www.w3.org/2000/svg" viewBox="0 0 500 500"><defs><style>.cls-1{fill:#233;}</style></defs><path class="cls-1" d="M184,166S200,178.88,209.5,187.57c-.62,2.28-2.9,3.32-5.8,3.32H79.89l-1.65-5.8h49.48V146.17H89.42l-1.66-5.8h40V112.84c-10.56.61-21.12,1-31.26,1,0,12-13,19.67-24.43,8.9.2-10.56-2.9-21.94-6.63-31.26v97.31c-.21,1.65-9.32,8.07-23.6,8.07H36.42V125.46A175.64,175.64,0,0,1,8.05,152.38L6,150.31c13.87-21.12,23.19-51.55,28.16-79.09h-24l-1.65-5.8h28v-29c-9.74,1.24-19.46,2.07-29,2.69L7,37.06C27.93,27.54,53.6,11.18,66,0L96.46,25.67V8.28l28.57,11h34.78L172.64,5.38l26.5,19.88c-1.24,1.66-3.93,3.52-8.28,4.55V75.57c-.2,1.24-8.69,5-17.18,6.62l25.88,24.64c-2.9,2.28-8.08,2.48-15.53-.21-7.66,1.45-16.56,2.69-26.29,3.73v30h7.87l13.87-18.22s15.73,12.22,25.05,20.7c-.62,2.28-2.9,3.32-5.8,3.32h-41v38.92h12ZM96.46,28.57c-2.9,1.24-7.25,1.24-13.25-.62C78,29.4,72,30.85,65.4,32.09V64.8L76.58,48.65S89,59.63,96.46,67.29ZM65.4,84.47C85.28,91.09,94,101,96,109.73c22.57-7.25,48.65-18.22,65.84-27.54V73.91H124v5c0,2.49-12.21,8.49-23.6,8.49H96.46V69.15c-1,1.45-2.69,2.07-5,2.07H65.4ZM124,25.05V68.11h37.89V25.05Z"/><path class="cls-1" d="M404.74,163.76c7.87,14.7,9.11,23.19,4.77,27.13-12.22,11-31.68.62-41-8.29-24.84-24.22-36.85-55.07-42.65-90.47C325,94,323,94.82,320.27,94.82H288.6v55.07c13.45-2.07,27.74-4.55,42.44-7l.41,2.28c-17.8,10.35-44.92,23.4-88.61,41.41a8.73,8.73,0,0,1-5.79,5.38L218,160.66c8.9-1,23.19-3.11,40.58-6V94.82H225L223.38,89h61.49l14.7-19s16.15,12.42,26.09,21.11c-1.87-11.8-3.11-24.42-3.94-37.26H218.83L217.17,48H321.52c-.83-14.9-1-30.64-1-46.58l38.3,3.73c-.41,2.69-2.07,5.17-7.45,6-.21,12.42-.41,24.85,0,36.85h15.32l9.94-12.21c-.83-.42-1.45-.62-2.28-1-2.9-9.52-10.56-19.67-17-25.46l1.45-1.24c41.82-5,44.1,18.21,32.71,26.29,6.21,4.76,14.7,11.18,20.91,16.15-.62,2.27-3.1,3.31-6.21,3.31H351.54c1.86,41.2,9.73,77.64,35.19,99.58,2.69,2.69,4.35,2.69,6.63-.62a247.59,247.59,0,0,0,14.7-26.7l2.07.61Z"/><path class="cls-1" d="M430.06,79s3.68-4.8,6.25-7.65c.76.14,1.11.91,1.11,1.88v22.3A34.58,34.58,0,0,1,444,106.67l-.63.62a32.63,32.63,0,0,0-6.46-3.54,1.74,1.74,0,0,1,.56,1.53v17.09a41.78,41.78,0,0,1,11.25,15.14l-.62.69c-4.87-4-12.78-7.78-21-9.72l3.75-12.57c.9.27,1.53,1.18,1.53,2.84,1.11.7,2.15,1.39,3.12,2.09v-6.6l-5.28-3.89s3.55-4.31,6.05-6.88a47.8,47.8,0,0,0-9.24-3l4.72-12c.84.35,1.39,1.32,1.25,2.92.91.69,1.74,1.39,2.5,2.08V83.19Zm45.7,2.63c.56-.76,4-5.48,6.46-8.4.76.21,1.11,1,1.11,1.94v25.29h7.43c.84,0,2.92,4.44,2.92,8.19v1.88H483.33v23.75l-1.94.56V110.49h-5.63V129.1l-1.95.56V110.49h-6.25v17.36l-1.94.63v-18h-6v24.24l-1.95.56v-24.8h-6V127.3l-1.95.62V110.49h-5l1.11-12.36c.91.13,1.53.55,1.81,2.29h2.08v-7.5l-3.26-3.13a7.23,7.23,0,0,1-.9,1.74,12.06,12.06,0,0,0-7,2.78l-.35-.56c-.14-12.78,7.36-11.11,8.34-6.53l5-6.81a3.39,3.39,0,0,1,1.18,2.16h4.51l-5.14-3.2s3.89-3.89,6.39-6c.77.14,1.12.83,1.12,1.8v7.37h8.33c.28,0,.83,1.18,1.25,2.71,1.18-1.6,3.61-5.07,5.49-7.51.76.21,1.11,1,1.11,2Zm-37.51,39.94c.63-15.56,12.16-8.33,7.43-2.08a14.28,14.28,0,0,0-7.08,2.64Zm19.38-21.11V92.29h-6v8.13Zm8,0V92.29h-6v8.13Zm8.19,0V90.83l-4.09-3.54a14.39,14.39,0,0,1,.41,3.26v1.74h-2.57v8.13Zm1.95-18.69v18.69h5.63V86.25Z"/><path class="cls-1" d="M436.24,42.35s3.54-4.52,6-7.23c.76.21,1.11.91,1.11,1.88V67.7l-1.94.55V46.31Zm9.1,2.91s3.47-4.37,5.9-7c.76.21,1.11.9,1.11,1.87V64.64l-1.94.56V49.15Zm9,0s3.47-4.37,5.9-7c.76.21,1.11.9,1.11,1.87V64.64l-1.94.56V49.15Zm10.14.14,6.11-8.06a4.17,4.17,0,0,1,1.32,2.51h15.49c.55.07,2.36,4.3,2.36,7.29v1.53H486v6.8h4.24c.76,0,2.7,3.82,2.7,7.44v1.25H465.27l3.47-8.89V49.36Zm-35.7,14.94c-.7-21,15.76-13.06,10-4.24a19.42,19.42,0,0,0-9.66,4.65Zm55.28-11.67h-13.4v6.8h13.4ZM481.32,5.39c1-2.57,2.08-3.26,3.75-3.26,3.89,0,5.48,3.68,5.48,16.25v7.51c0,8-1.52,10.21-8,10.21h-32l3.82-10.35V16.51H435.68V36.86l-1.94.62V17.34l-5.07-4.44,7.22-9.38A6.16,6.16,0,0,1,437.7,7h22.85c.55.07,2.15,4.79,2.15,8v1.53h-6.39V26.65h24.1c1.25,0,1.6-.49,1.6-2.64V17.34c0-2.08,0-4.1-.07-5.14a2.65,2.65,0,0,0-1-2.15c-1.25-.91-4.45-2.15-8.68-3.68v-.7Z"/></svg>