<svg id="圖層_1" data-name="圖層 1" xmlns="http://www.w3.org/2000/svg" viewBox="0 0 500 500"><defs><style>.cls-1{fill:#332323;}</style></defs><path class="cls-1" d="M474.14,132.09c7.49-3.22,13.16-3.15,16.1-.91,2.1,1.68,1.82,6-1.12,7.42-2.59,1.19-5,0-6.58-2.31-1.54-1.54-5.32-3.78-8.4-3.29ZM483,80.49s4.41-5.39,7.35-8.54c.77.14,1.12.91,1.12,2v40.46l-2,.56V99.46H472.67v11l-2,.56V86.65l-5.25-3.92c-4.06.63-10.15,3.43-13.44,7.35-2.67-1.19-6.66-2.8-9.88-4a2.28,2.28,0,0,1,.35,1.89c2,2.17,6.79,8,9.66,11.9,5.68-20.65,19.26-11.83,14.29-4.83-4.06.28-10.5,2.59-14.07,6.37-2.88-1.19-7.15-2.73-10.44-3.78a2.49,2.49,0,0,1,.21,1.54c2,2.17,7,7.63,9.94,11.34,6.38-19.39,19.47-10.29,14.36-3.78-3.92.14-10.29,1.89-14.21,5.32-1.06-.42-2.32-.84-3.65-1.33a2.82,2.82,0,0,1,.07,1.89c4.84,4,11.7,11.84,16.18,18.91-.21-3.5-.49-7.84-.77-12.33a39.46,39.46,0,0,0-5.81,2.17l-.35-.69c5.81-16.25,17.92-8.62,12.18-2.46a16.16,16.16,0,0,0-3.64.43c1.89,3.78,4.34,9,6.72,15a4.28,4.28,0,0,1,1.47,2L465,138.88a10.84,10.84,0,0,0-1-2.73c-2.1-3.08-6.65-6.93-11.49-10.15,1,2.1,2.11,4.48,3.16,7a3.78,3.78,0,0,1,1.68,1.82l-9.53,4.06a9.7,9.7,0,0,0-.91-2.31c-3.08-3.22-13.23-7.56-18.69-8.68l5.53-11c.63.28,1.05,1.12,1,2.39a75.1,75.1,0,0,1,13.37,13.65c0-2.8,0-6.23-.07-9.8a42.23,42.23,0,0,0-6.79-3.36l6.44-9.39c-3.78-1.26-7.84-2.45-9.8-2.87l3-10.22c-1.12-.35-2.1-.63-2.8-.77l3.29-10.71q-2.1-.74-3.36-1l3.57-11c.7.28,1.19,1,1,2.38,1.89,2.24,6.51,8.4,9.24,12.25,4.42-18.76,15.62-14.63,15-8.47,1.4-1.61,3.29-3.78,4.76-5.39.77.21,1.12.91,1.12,1.89V89.1h16.87V85.32ZM473.3,126.7c8.89-14,20.3-4.62,13.37.77a36,36,0,0,0-13.16.07Zm-1.05-7c5.18-16.46,17.71-8.83,12-2.66a24.12,24.12,0,0,0-11.69,3.36Zm-35.85-7.64-2,.56V86.3l-5.74-4.55s3.85-5.18,6.58-8.33c.77.21,1.12,1,1.12,2Z"/><path class="cls-1" d="M428.21,12.59s4.41-5.88,7.42-9.38c.77.21,1.12,1,1.12,2v9.31l5.95-6.23c.63.77.63,2.1-.07,3.85.21,1.19.49,2.45.7,3.92h6.3v-.28l-5-3.64s3.5-4.2,5.88-6.65c.78.21,1.12.91,1.12,1.89v8.68H453c2.52-15.82,14.84-10,10.29-3.36a20.24,20.24,0,0,0-7.7,3.36h9.73c.49,0,2.17,2.52,2.17,6.65v1.47H460.7a43,43,0,0,1,5.67,9l-1,.56a31.58,31.58,0,0,0-13.8-7.91v5.25l-2,.56V24.21h-5.25c.21,2.31.35,4.62.42,6.79l-1.12.28a86.28,86.28,0,0,0-6.93-16.52V55.23h14.7c4.14,0,8.9.07,13.87.56a35.35,35.35,0,0,0-13.73-6.38v4.7l-2,.56V47.74H444.8c.21,2,.42,4.06.49,5.95l-1.05.35A75.91,75.91,0,0,0,437,38.42l5.88-6.37c.63.7.63,2-.07,3.78.28,1.12.56,2.38.84,3.71h4.83l-2.87-2.17s2.87-3.5,4.9-5.6c.78.14,1.12.84,1.12,1.75v6h1.2c1.75-14.42,12.25-7.07,7.42-1.4a12.21,12.21,0,0,0-5.74,1.4h12.11c.42,0,2.1,2.52,2.1,6.72v1.48h-7.56a42.31,42.31,0,0,1,5.32,7.49l-.84.63c10.22,1,21.14,4.2,29.12,13l-.42.63c-12.95-4.76-29.4-4.83-42.85-4.83H431.08l3.71-10.85V17.77Zm55.59.91s4.27-5.74,7.21-9.24c.77.21,1.12,1,1.12,2V60.06l-2,.56V50.54H472.11l.91-11.7c.91.07,1.54.56,1.82,2.24h15.33v-5.6h-23l1-11.9c.91.14,1.54.56,1.82,2.31h7.28V23.3l-5.81-4.62s3.92-5.18,6.65-8.4c.77.21,1.12,1,1.12,2V25.89h11V18.54Z"/><path class="cls-1" d="M36,93.1c2.38,13.24-1.31,23.89-12.38,28.23-18.9,7.38-31.06-18-10-28.67C20.18,89.84,25.39,82,24.74,70.51l2.39-.22A74.51,74.51,0,0,1,34.52,87H35L33.21,13.83l21.94,3.69A186.35,186.35,0,0,0,70.78,3l18.68,13.9A60.93,60.93,0,0,1,104.23,18a93.24,93.24,0,0,0,7.38-13.46L134.2,16c-1.09,1.95-3.26,2.39-7.17,1.52a52.61,52.61,0,0,1-7,7.17c10.21,8.47,4.35,20.41-7,17.15a62.85,62.85,0,0,0-6.51-7.16A146.44,146.44,0,0,1,85.77,45.32c-.65,2-2.39,2.82-5.21,2.82H61.23l.22,16.94h.65l8.68-11.51s9.78,8,15.64,14.12c-.43,2.39-2.6,3.47-5.43,3.47H61.66L62.1,87H147l.44-15.85H133.33l-2-6.08h16.5l.65-16.94H134.42l-2-6.08h16.29l.65-17.16H132l-2-6.08h17.38l10.86-13L184.8,25.34c-1.74,1.95-3.47,2.82-7.82,3.47L175,80.72l8.9-8.69,25.85,24.76c-1.74,1.74-3.7,2.39-8.26,2.6-9.55,4.56-25.41,11.73-35.61,15.42l-1.52-1.3c1.52-5.43,3.47-13.68,5.21-20.41Zm139.42,35.4s17.16,14.11,27.15,23.45c-.65,2.39-3,3.48-6.3,3.48H121.6v19.11c0,20.63-4.56,31.7-38.22,34.74-.87-10-1.95-16.72-5.65-21.71-3.91-4.56-8.47-7.82-20.41-10v-2.83s25,1.52,29.75,1.52c2.83,0,3.91-.86,3.91-3.25V155.43H10.19l-1.74-6.09H91v-18l21.5,1.74c4.35-4.78,8.69-10,12.38-14.34H52.11l-2-6.08h77.1l16.29-15.42,26.93,23.67c-2,2-3.91,2.61-8.69,2.83-9.12,3.26-21.07,7.38-33,10.86-.65,3-2.82,4.56-7.17,5.21v9.55h38.66ZM70.35,31.2s7.17,5.65,12.81,10.86a136.26,136.26,0,0,0,14.55-15c-3-2.18-5.86-4.35-8.68-6.09a8.37,8.37,0,0,1-3-.65,220.42,220.42,0,0,1-25.41,5L61,42.06h.87ZM137.24,54c-1.09,2.18-3.48,2.61-7.17,1.74a67.82,67.82,0,0,1-7.82,8.47c10.43,9.77,3.48,22.8-8.68,18.24a57.56,57.56,0,0,0-5.87-8A113.83,113.83,0,0,1,80.56,85.71l-1.74-3A104.35,104.35,0,0,0,99,66a94.08,94.08,0,0,0-12.6-9.77l2-2a72.56,72.56,0,0,1,18.24,2.17,70.55,70.55,0,0,0,7.82-13.24Z"/><path class="cls-1" d="M420,24a15.18,15.18,0,0,1-8.69,4.57V82.67c0,16.51-3.69,26.06-27.79,29.1l21.06,16.07a14.64,14.64,0,0,1-8.69,4.56v69.5c-.21,1.74-16.07,7.17-26.49,7.17H364V194.3H284.48v5c0,3-14.11,10-27.36,10h-4.56V108.52l33.88,12.81h21.28c.43-4.56,1.09-10.86,1.52-16.72-4.78,3.91-12.6,6.29-25,7.38-.44-8.25-1.09-14.33-3.7-18.24-2.38-3.69-5.64-6.74-14.33-8.25V84.41c-5.21,3.69-11.08,7.82-17.37,12.16a8.79,8.79,0,0,1-5.22,6.08L227.37,74c11.07-2.17,35.4-8,61.24-14.76V23.82H232.14l-1.95-6.08h56.25L298.82,3.62l26.71,20.2c-1.3,1.73-4.13,3.91-8.69,4.56V82.67c0,5.43-.43,10-1.73,13.9l21.28,3.26L319.23,72c11.51-2.17,36.27-7.6,63.2-14.12V23.82h-56.9l-2-6.08h56.69L392.85,3.62Zm-178.52,3.7c58.86.21,40.61,45.82,16.51,31.49-2.61-10.86-10.86-23-18.25-30.19Zm47.13,39.52q-8.48,6.84-20.2,15.64c4.13.22,13.25.87,16.51.87,2.82,0,3.69-1.31,3.69-3.91Zm-4.13,60.16V153.9H364V127.41ZM364,188.22V160H284.48v28.23Zm13.9-80.79c-.65-5.86-1.3-10.43-3.48-13.47-2.6-3.69-5.64-6.95-14.55-8.46V83.32c-5.43,3.48-11.29,7.39-17.59,11.3a8.58,8.58,0,0,1-4.34,5.43l13.25,2c-.87,3.91-3.91,5.65-8.69,6.08-5.65,3.69-14.55,9.34-21.07,13.25h40.4l13.9-15.42Zm-46.48-79.7c59.29-1.31,41.27,45.17,16.73,31.05C345.51,47.92,337.26,36,329.87,29Zm51,40.39c-6.08,4.34-13.25,9.12-21.72,14.55,3.48.22,14.34,1.09,18,1.09,2.82,0,3.69-1.52,3.69-3.91Z"/></svg>